<svg xmlns="http://www.w3.org/2000/svg" viewBox="0 0 64 64" width="64" height="64">
  <rect width="64" height="64" rx="12" fill="#1E2026"/>
  <g fill="#F0B90B">
    <polygon points="32,10 37,15 27,15"/>
    <polygon points="32,54 27,49 37,49"/>
    <polygon points="10,32 15,27 15,37"/>
    <polygon points="54,32 49,37 49,27"/>
    <rect x="28" y="28" width="8" height="8" transform="rotate(45 32 32)"/>
    <polygon points="20,20 25,15 25,25 15,25"/>
    <polygon points="44,20 49,25 39,25 39,15"/>
    <polygon points="20,44 15,39 25,39 25,49"/>
    <polygon points="44,44 39,49 39,39 49,39"/>
  </g>
</svg>
