<svg xmlns="http://www.w3.org/2000/svg" viewBox="0 0 64 64" width="64" height="64">
  <defs>
    <linearGradient id="bybit-bg" x1="0%" y1="0%" x2="100%" y2="100%">
      <stop offset="0%" stop-color="#F7931A"/>
      <stop offset="100%" stop-color="#FFB347"/>
    </linearGradient>
  </defs>
  <rect width="64" height="64" rx="12" fill="url(#bybit-bg)"/>
  <path d="M20 16h12c5.5 0 10 3.5 10 8.5 0 3-1.5 5.2-4 6.5 3.2 1.3 5.5 4 5.5 7.5 0 5.5-4.5 9.5-10.5 9.5H20V16z M28 28h3.5c2.5 0 4-1.5 4-3.5s-1.5-3.5-4-3.5H28v7z M28 43h4.5c3 0 4.5-1.8 4.5-4s-1.5-4-4.5-4H28v8z" fill="white"/>
</svg>
